<svg xmlns="http://www.w3.org/2000/svg" xmlns:xlink="http://www.w3.org/1999/xlink" version="1.1" data-diagram-type="ACTIVITY" style="width:1477px;height:1818px;background:#FFFFFF;" width="1477px" height="1818px" viewBox="0 0 1477 1818" zoomAndPan="magnify" preserveAspectRatio="none" contentStyleType="text/css"><?plantuml 1.2026.8?><defs/><g font-family="sans-serif" lengthAdjust="spacing"><g class="title" data-source-line="1"><text x="625.972" y="34.813" fill="#000" font-size="14" textLength="223.344" font-weight="700" font-family="Microsoft YaHei">官方 Benchmark：执行与评分流程</text></g><ellipse cx="696.802" cy="64.478" rx="10" ry="10" fill="#222" style="stroke:#222;stroke-width:1;"/><rect x="581.802" y="94.478" width="230" height="56.955" fill="#E1F0FF" style="stroke:#6A8BAB;stroke-width:0.5;" rx="12.5" ry="12.5"/><text x="591.802" y="119.291" fill="#000" font-size="14" textLength="127.463" font-family="Microsoft YaHei">duplex_experiment</text><text x="591.802" y="137.769" fill="#000" font-size="14" textLength="210" font-family="Microsoft YaHei">加载外部配置，创建全新结果目录</text><rect x="561.144" y="171.433" width="271.316" height="56.955" fill="#E1F0FF" style="stroke:#6A8BAB;stroke-width:0.5;" rx="12.5" ry="12.5"/><text x="571.144" y="196.246" fill="#000" font-size="14" textLength="243.51" font-family="Microsoft YaHei">校验上游固定 commit 与 tracked 文件</text><text x="571.144" y="214.724" fill="#000" font-size="14" textLength="251.316" font-family="Microsoft YaHei">选择官方原题，保留原 updates / rubric</text><polygon points="668.802,248.388,724.802,248.388,736.802,260.388,724.802,272.388,668.802,272.388,656.802,260.388,668.802,248.388" fill="#FFF6DC" style="stroke:#6A8BAB;stroke-width:0.5;stroke-linejoin:miter;stroke-miterlimit:10;"/><text x="668.802" y="265.962" fill="#000" font-size="14" textLength="56" font-family="Microsoft YaHei">评测集？</text><text x="513.651" y="256.724" fill="#000" font-size="14" textLength="143.151" font-family="Microsoft YaHei">InterruptBench / U2A</text><text x="736.802" y="256.724" fill="#000" font-size="14" textLength="121.229" font-family="Microsoft YaHei">AgentRadio / A2A</text><rect x="16" y="282.388" width="812.797" height="1200.268" fill="none" style="stroke:#000;stroke-width:1.5;"/><path d="M256.918,282.388 L256.918,293.865 L246.918,303.865 L16,303.865" style="stroke:#000;stroke-width:1.5;" fill="none"/><text x="19" y="298.201" fill="#000" font-size="14" textLength="230.918" font-family="Microsoft YaHei">原 WebArena runner：Python 3.11</text><rect x="127.977" y="320.865" width="271.214" height="56.955" fill="#E1F0FF" style="stroke:#6A8BAB;stroke-width:0.5;" rx="12.5" ry="12.5"/><text x="137.977" y="345.679" fill="#000" font-size="14" textLength="163.338" font-family="Microsoft YaHei">外部提供网站 / reset 服务</text><text x="137.977" y="364.156" fill="#000" font-size="14" textLength="251.214" font-family="Microsoft YaHei">强制每题 reset 配置，生成原始意图配置</text><rect x="160.95" y="441.82" width="205.268" height="38.478" fill="#E1F0FF" style="stroke:#6A8BAB;stroke-width:0.5;" rx="12.5" ry="12.5"/><text x="170.95" y="466.634" fill="#000" font-size="14" textLength="185.268" font-family="Microsoft YaHei">运行官方 baseline，保存轨迹</text><rect x="99.205" y="558.775" width="328.759" height="38.478" fill="#E1F0FF" style="stroke:#6A8BAB;stroke-width:0.5;" rx="12.5" ry="12.5"/><text x="109.205" y="583.589" fill="#000" font-size="14" textLength="308.759" font-family="Microsoft YaHei">默认策略 official / steer / abort_restart / model</text><path d="M419.584,700.775 L419.584,720.253 L399.584,724.253 L419.584,728.253 L419.584,747.73 A0,0 0 0 0 419.584,747.73 L650.584,747.73 A0,0 0 0 0 650.584,747.73 L650.584,710.775 L640.584,700.775 L419.584,700.775 A0,0 0 0 0 419.584,700.775" style="stroke:#181818;stroke-width:0.5;" fill="#FFF6DC"/><path d="M640.584,700.775 L640.584,710.775 L650.584,710.775 L640.584,700.775" style="stroke:#181818;stroke-width:0.5;" fill="#FFF6DC"/><text x="425.584" y="720.589" fill="#000" font-size="14" textLength="183.695" font-family="Microsoft YaHei">Stage 1 共享本轮 baseline。</text><text x="425.584" y="739.066" fill="#000" font-size="14" textLength="210" font-family="Microsoft YaHei">后续阶段使用各策略自己的轨迹。</text><rect x="127.584" y="695.775" width="272" height="56.955" fill="#E1F0FF" style="stroke:#6A8BAB;stroke-width:0.5;" rx="12.5" ry="12.5"/><text x="137.584" y="720.589" fill="#000" font-size="14" textLength="217.123" font-family="Microsoft YaHei">上游 make_multi_interrupt_stage</text><text x="137.584" y="739.066" fill="#000" font-size="14" textLength="252" font-family="Microsoft YaHei">由上一阶段轨迹生成当前意图与更新边界</text><rect x="165.356" y="787.73" width="196.456" height="56.955" fill="#E1F0FF" style="stroke:#6A8BAB;stroke-width:0.5;" rx="12.5" ry="12.5"/><text x="175.356" y="812.544" fill="#000" font-size="14" textLength="163.119" font-family="Microsoft YaHei">原 runner reset → replay</text><text x="175.356" y="831.021" fill="#000" font-size="14" textLength="176.456" font-family="Microsoft YaHei">到达官方 K-action 更新边界</text><polygon points="218.241,879.686,308.927,879.686,320.927,891.686,308.927,903.686,218.241,903.686,206.241,891.686,218.241,879.686" fill="#FFF6DC" style="stroke:#6A8BAB;stroke-width:0.5;stroke-linejoin:miter;stroke-miterlimit:10;"/><text x="218.241" y="897.26" fill="#000" font-size="14" textLength="90.686" font-family="Microsoft YaHei">official 策略？</text><text x="192.241" y="888.021" fill="#000" font-size="14" font-family="Microsoft YaHei">是</text><text x="320.927" y="888.021" fill="#000" font-size="14" textLength="56" font-family="Microsoft YaHei">并发扩展</text><rect x="28" y="913.686" width="203.34" height="38.478" fill="#E1F0FF" style="stroke:#6A8BAB;stroke-width:0.5;" rx="12.5" ry="12.5"/><text x="38" y="938.499" fill="#000" font-size="14" textLength="183.34" font-family="Microsoft YaHei">沿用原 call_llm 与原更新时序</text><rect x="251.34" y="913.686" width="292.316" height="38.478" fill="#E1F0FF" style="stroke:#6A8BAB;stroke-width:0.5;" rx="12.5" ry="12.5"/><text x="261.34" y="938.499" fill="#000" font-size="14" textLength="272.316" font-family="Microsoft YaHei">原 PromptAgent 构造更新前 / 后 prompts</text><rect x="276.968" y="979.447" width="241.061" height="56.955" fill="#E1F0FF" style="stroke:#6A8BAB;stroke-width:0.5;" rx="12.5" ry="12.5"/><text x="286.968" y="1004.26" fill="#000" font-size="14" textLength="187.975" font-family="Microsoft YaHei">ProcessWorker：stdio JSON</text><text x="286.968" y="1022.738" fill="#000" font-size="14" textLength="221.061" font-family="Microsoft YaHei">独立 Python 3.12 执行 NativePeer</text><path d="M519.872,1052.163 L519.872,1080.879 L499.872,1084.879 L519.872,1088.879 L519.872,1117.596 A0,0 0 0 0 519.872,1117.596 L736.797,1117.596 A0,0 0 0 0 736.797,1117.596 L736.797,1062.163 L726.797,1052.163 L519.872,1052.163 A0,0 0 0 0 519.872,1052.163" style="stroke:#181818;stroke-width:0.5;" fill="#FFF6DC"/><path d="M726.797,1052.163 L726.797,1062.163 L736.797,1062.163 L726.797,1052.163" style="stroke:#181818;stroke-width:0.5;" fill="#FFF6DC"/><text x="525.872" y="1071.977" fill="#000" font-size="14" textLength="190.456" font-family="Microsoft YaHei">更新仍在同一 K-action 边界。</text><text x="525.872" y="1090.454" fill="#000" font-size="14" textLength="182" font-family="Microsoft YaHei">等待期间不执行新网页动作。</text><text x="525.872" y="1108.932" fill="#000" font-size="14" textLength="195.925" font-family="Microsoft YaHei">独立 worker 的日志走 stderr。</text><rect x="295.124" y="1056.402" width="204.748" height="56.955" fill="#E1F0FF" style="stroke:#6A8BAB;stroke-width:0.5;" rx="12.5" ry="12.5"/><text x="305.124" y="1081.215" fill="#000" font-size="14" textLength="184.748" font-family="Microsoft YaHei">启动旧 prompt 的慢模型请求</text><text x="305.124" y="1099.693" fill="#000" font-size="14" textLength="163.563" font-family="Microsoft YaHei">异步投递官方原始 update</text><rect x="284.679" y="1152.596" width="225.639" height="38.478" fill="#E1F0FF" style="stroke:#6A8BAB;stroke-width:0.5;" rx="12.5" ry="12.5"/><text x="294.679" y="1177.409" fill="#000" font-size="14" textLength="205.639" font-family="Microsoft YaHei">应用 Native 策略，返回文本动作</text><polygon points="263.584,1197.073,275.584,1209.073,263.584,1221.073,251.584,1209.073,263.584,1197.073" fill="#FFF6DC" style="stroke:#6A8BAB;stroke-width:0.5;stroke-linejoin:miter;stroke-miterlimit:10;"/><rect x="140.364" y="1241.073" width="246.44" height="56.955" fill="#E1F0FF" style="stroke:#6A8BAB;stroke-width:0.5;" rx="12.5" ry="12.5"/><text x="150.364" y="1265.887" fill="#000" font-size="14" textLength="226.44" font-family="Microsoft YaHei">原动作解析 → env.step → 保存轨迹</text><text x="150.364" y="1284.364" fill="#000" font-size="14" textLength="160.521" font-family="Microsoft YaHei">原 evaluator_router 评分</text><polygon points="263.584,632.253,275.584,644.253,263.584,656.253,251.584,644.253,263.584,632.253" fill="#FFF6DC" style="stroke:#6A8BAB;stroke-width:0.5;stroke-linejoin:miter;stroke-miterlimit:10;"/><polygon points="214.584,1318.028,312.584,1318.028,324.584,1330.028,312.584,1342.028,214.584,1342.028,202.584,1330.028,214.584,1318.028" fill="#FFF6DC" style="stroke:#6A8BAB;stroke-width:0.5;stroke-linejoin:miter;stroke-miterlimit:10;"/><text x="267.584" y="1356.842" fill="#000" font-size="14" font-family="Microsoft YaHei">否</text><text x="214.584" y="1335.603" fill="#000" font-size="14" textLength="98" font-family="Microsoft YaHei">还有更新阶段？</text><text x="324.584" y="1326.364" fill="#000" font-size="14" font-family="Microsoft YaHei">是</text><polygon points="263.584,501.775,275.584,513.775,263.584,525.775,251.584,513.775,263.584,501.775" fill="#FFF6DC" style="stroke:#6A8BAB;stroke-width:0.5;stroke-linejoin:miter;stroke-miterlimit:10;"/><polygon points="228.584,1378.342,298.584,1378.342,310.584,1390.342,298.584,1402.342,228.584,1402.342,216.584,1390.342,228.584,1378.342" fill="#FFF6DC" style="stroke:#6A8BAB;stroke-width:0.5;stroke-linejoin:miter;stroke-miterlimit:10;"/><text x="267.584" y="1417.155" fill="#000" font-size="14" font-family="Microsoft YaHei">否</text><text x="228.584" y="1395.917" fill="#000" font-size="14" textLength="70" font-family="Microsoft YaHei">还有策略？</text><text x="310.584" y="1386.678" fill="#000" font-size="14" font-family="Microsoft YaHei">是</text><polygon points="263.584,397.82,275.584,409.82,263.584,421.82,251.584,409.82,263.584,397.82" fill="#FFF6DC" style="stroke:#6A8BAB;stroke-width:0.5;stroke-linejoin:miter;stroke-miterlimit:10;"/><polygon points="214.584,1438.655,312.584,1438.655,324.584,1450.655,312.584,1462.655,214.584,1462.655,202.584,1450.655,214.584,1438.655" fill="#FFF6DC" style="stroke:#6A8BAB;stroke-width:0.5;stroke-linejoin:miter;stroke-miterlimit:10;"/><text x="267.584" y="1477.469" fill="#000" font-size="14" font-family="Microsoft YaHei">否</text><text x="214.584" y="1456.23" fill="#000" font-size="14" textLength="98" font-family="Microsoft YaHei">还有重复实验？</text><text x="324.584" y="1446.991" fill="#000" font-size="14" font-family="Microsoft YaHei">是</text><rect x="848.797" y="282.388" width="608.491" height="893.73" fill="none" style="stroke:#000;stroke-width:1.5;"/><path d="M1038.11,282.388 L1038.11,293.865 L1028.11,303.865 L848.797,303.865" style="stroke:#000;stroke-width:1.5;" fill="none"/><text x="851.797" y="298.201" fill="#000" font-size="14" textLength="179.313" font-family="Microsoft YaHei">原 Harbor + Linux 任务容器</text><rect x="1025.794" y="320.865" width="206.922" height="56.955" fill="#E1F0FF" style="stroke:#6A8BAB;stroke-width:0.5;" rx="12.5" ry="12.5"/><text x="1035.794" y="345.679" fill="#000" font-size="14" textLength="186.922" font-family="Microsoft YaHei">准备 Docker 或已认证 Modal</text><text x="1035.794" y="364.156" fill="#000" font-size="14" textLength="183.36" font-family="Microsoft YaHei">原任务容器与 Coral 通信服务</text><rect x="964.619" y="500.298" width="329.271" height="38.478" fill="#E1F0FF" style="stroke:#6A8BAB;stroke-width:0.5;" rx="12.5" ry="12.5"/><text x="974.619" y="525.111" fill="#000" font-size="14" textLength="309.271" font-family="Microsoft YaHei">默认策略 L2 / L3 / steer / abort_restart / model</text><polygon points="1099.727,558.775,1158.783,558.775,1170.783,570.775,1158.783,582.775,1099.727,582.775,1087.727,570.775,1099.727,558.775" fill="#FFF6DC" style="stroke:#6A8BAB;stroke-width:0.5;stroke-linejoin:miter;stroke-miterlimit:10;"/><text x="1099.727" y="576.35" fill="#000" font-size="14" textLength="59.056" font-family="Microsoft YaHei">L2 / L3？</text><text x="1073.727" y="567.111" fill="#000" font-size="14" font-family="Microsoft YaHei">是</text><text x="1170.783" y="567.111" fill="#000" font-size="14" textLength="75.496" font-family="Microsoft YaHei">Native 策略</text><rect x="868.031" y="592.775" width="241.819" height="38.478" fill="#E1F0FF" style="stroke:#6A8BAB;stroke-width:0.5;" rx="12.5" ry="12.5"/><text x="878.031" y="617.589" fill="#000" font-size="14" textLength="221.819" font-family="Microsoft YaHei">上游 Coral 适配器与原 peer 执行器</text><rect x="1139.212" y="592.775" width="260.714" height="56.955" fill="#E1F0FF" style="stroke:#6A8BAB;stroke-width:0.5;" rx="12.5" ry="12.5"/><text x="1149.212" y="617.589" fill="#000" font-size="14" textLength="240.714" font-family="Microsoft YaHei">JiuwenAgentRadio 继承原安装与编排</text><text x="1149.212" y="636.066" fill="#000" font-size="14" textLength="136.459" font-family="Microsoft YaHei">仅替换 peer 启动入口</text><rect x="1146.202" y="676.253" width="246.734" height="56.955" fill="#E1F0FF" style="stroke:#6A8BAB;stroke-width:0.5;" rx="12.5" ry="12.5"/><text x="1156.202" y="701.066" fill="#000" font-size="14" textLength="226.734" font-family="Microsoft YaHei">原四 Agent、五阶段提示与恢复提示</text><text x="1156.202" y="719.544" fill="#000" font-size="14" textLength="133.294" font-family="Microsoft YaHei">启动持久 NativePeer</text><rect x="1129.85" y="768.208" width="279.438" height="56.955" fill="#E1F0FF" style="stroke:#6A8BAB;stroke-width:0.5;" rx="12.5" ry="12.5"/><text x="1139.85" y="793.021" fill="#000" font-size="14" textLength="148.846" font-family="Microsoft YaHei">Bash watcher 后台完成</text><text x="1139.85" y="811.499" fill="#000" font-size="14" textLength="259.438" font-family="Microsoft YaHei">原 Coral 消息输出 → NativePeer.receive</text><rect x="1154.302" y="860.163" width="230.533" height="56.955" fill="#E1F0FF" style="stroke:#6A8BAB;stroke-width:0.5;" rx="12.5" ry="12.5"/><text x="1164.302" y="884.977" fill="#000" font-size="14" textLength="210.533" font-family="Microsoft YaHei">按策略追加 / 取消重建 / 安全恢复</text><text x="1164.302" y="903.454" fill="#000" font-size="14" textLength="182" font-family="Microsoft YaHei">继续任务直到答案产出或失败</text><polygon points="1129.255,923.118,1141.255,935.118,1129.255,947.118,1117.255,935.118,1129.255,923.118" fill="#FFF6DC" style="stroke:#6A8BAB;stroke-width:0.5;stroke-linejoin:miter;stroke-miterlimit:10;"/><rect x="1016.599" y="974.402" width="225.311" height="56.955" fill="#E1F0FF" style="stroke:#6A8BAB;stroke-width:0.5;" rx="12.5" ry="12.5"/><text x="1026.599" y="999.215" fill="#000" font-size="14" textLength="132.036" font-family="Microsoft YaHei">保留答案和 trial 产物</text><text x="1026.599" y="1017.693" fill="#000" font-size="14" textLength="205.311" font-family="Microsoft YaHei">原 verify_local.py 按 rubric 评分</text><polygon points="1129.255,441.82,1141.255,453.82,1129.255,465.82,1117.255,453.82,1129.255,441.82" fill="#FFF6DC" style="stroke:#6A8BAB;stroke-width:0.5;stroke-linejoin:miter;stroke-miterlimit:10;"/><polygon points="1094.255,1060.118,1164.255,1060.118,1176.255,1072.118,1164.255,1084.118,1094.255,1084.118,1082.255,1072.118,1094.255,1060.118" fill="#FFF6DC" style="stroke:#6A8BAB;stroke-width:0.5;stroke-linejoin:miter;stroke-miterlimit:10;"/><text x="1133.255" y="1098.932" fill="#000" font-size="14" font-family="Microsoft YaHei">否</text><text x="1094.255" y="1077.693" fill="#000" font-size="14" textLength="70" font-family="Microsoft YaHei">还有策略？</text><text x="1176.255" y="1068.454" fill="#000" font-size="14" font-family="Microsoft YaHei">是</text><polygon points="1129.255,397.82,1141.255,409.82,1129.255,421.82,1117.255,409.82,1129.255,397.82" fill="#FFF6DC" style="stroke:#6A8BAB;stroke-width:0.5;stroke-linejoin:miter;stroke-miterlimit:10;"/><polygon points="1080.255,1132.118,1178.255,1132.118,1190.255,1144.118,1178.255,1156.118,1080.255,1156.118,1068.255,1144.118,1080.255,1132.118" fill="#FFF6DC" style="stroke:#6A8BAB;stroke-width:0.5;stroke-linejoin:miter;stroke-miterlimit:10;"/><text x="1133.255" y="1170.932" fill="#000" font-size="14" font-family="Microsoft YaHei">否</text><text x="1080.255" y="1149.693" fill="#000" font-size="14" textLength="98" font-family="Microsoft YaHei">还有重复实验？</text><text x="1190.255" y="1140.454" fill="#000" font-size="14" font-family="Microsoft YaHei">是</text><polygon points="696.802,1488.655,708.802,1500.655,696.802,1512.655,684.802,1500.655,696.802,1488.655" fill="#FFF6DC" style="stroke:#6A8BAB;stroke-width:0.5;stroke-linejoin:miter;stroke-miterlimit:10;"/><rect x="545.292" y="1532.655" width="303.021" height="56.955" fill="#E1F0FF" style="stroke:#6A8BAB;stroke-width:0.5;" rx="12.5" ry="12.5"/><text x="555.292" y="1557.469" fill="#000" font-size="14" textLength="244.556" font-family="Microsoft YaHei">duplex_metrics 汇总原评分与运行事件</text><text x="555.292" y="1575.946" fill="#000" font-size="14" textLength="283.021" font-family="Microsoft YaHei">末阶段按任务配对，task bootstrap 置信区间</text><rect x="549.147" y="1609.61" width="295.311" height="56.955" fill="#E1F0FF" style="stroke:#6A8BAB;stroke-width:0.5;" rx="12.5" ry="12.5"/><text x="559.147" y="1634.424" fill="#000" font-size="14" textLength="275.311" font-family="Microsoft YaHei">写 report.json、execution.json 和逐步日志</text><text x="559.147" y="1652.901" fill="#000" font-size="14" textLength="252.848" font-family="Microsoft YaHei">缺失分数留在分母，缺失成本指标为 null</text><ellipse cx="696.802" cy="1697.565" rx="11" ry="11" fill="none" style="stroke:#222;stroke-width:1;"/><ellipse cx="696.802" cy="1697.565" rx="6" ry="6" fill="#222" style="stroke:#222;stroke-width:1;"/><line x1="696.802" y1="74.478" x2="696.802" y2="94.478" style="stroke:#52647A;stroke-width:1;"/><polygon points="692.802,84.478,696.802,94.478,700.802,84.478,696.802,88.478" fill="#52647A" style="stroke:#52647A;stroke-width:1;stroke-linejoin:miter;stroke-miterlimit:10;"/><line x1="696.802" y1="151.433" x2="696.802" y2="171.433" style="stroke:#52647A;stroke-width:1;"/><polygon points="692.802,161.433,696.802,171.433,700.802,161.433,696.802,165.433" fill="#52647A" style="stroke:#52647A;stroke-width:1;stroke-linejoin:miter;stroke-miterlimit:10;"/><line x1="263.584" y1="752.73" x2="263.584" y2="787.73" style="stroke:#52647A;stroke-width:1;"/><polygon points="259.584,777.73,263.584,787.73,267.584,777.73,263.584,781.73" fill="#52647A" style="stroke:#52647A;stroke-width:1;stroke-linejoin:miter;stroke-miterlimit:10;"/><line x1="397.498" y1="952.163" x2="397.498" y2="979.447" style="stroke:#52647A;stroke-width:1;"/><polygon points="393.498,969.447,397.498,979.447,401.498,969.447,397.498,973.447" fill="#52647A" style="stroke:#52647A;stroke-width:1;stroke-linejoin:miter;stroke-miterlimit:10;"/><line x1="397.498" y1="1036.402" x2="397.498" y2="1056.402" style="stroke:#52647A;stroke-width:1;"/><polygon points="393.498,1046.402,397.498,1056.402,401.498,1046.402,397.498,1050.402" fill="#52647A" style="stroke:#52647A;stroke-width:1;stroke-linejoin:miter;stroke-miterlimit:10;"/><line x1="397.498" y1="1113.357" x2="397.498" y2="1152.596" style="stroke:#52647A;stroke-width:1;"/><polygon points="393.498,1142.596,397.498,1152.596,401.498,1142.596,397.498,1146.596" fill="#52647A" style="stroke:#52647A;stroke-width:1;stroke-linejoin:miter;stroke-miterlimit:10;"/><line x1="206.241" y1="891.686" x2="129.67" y2="891.686" style="stroke:#52647A;stroke-width:1;"/><line x1="129.67" y1="891.686" x2="129.67" y2="913.686" style="stroke:#52647A;stroke-width:1;"/><polygon points="125.67,903.686,129.67,913.686,133.67,903.686,129.67,907.686" fill="#52647A" style="stroke:#52647A;stroke-width:1;stroke-linejoin:miter;stroke-miterlimit:10;"/><line x1="320.927" y1="891.686" x2="397.498" y2="891.686" style="stroke:#52647A;stroke-width:1;"/><line x1="397.498" y1="891.686" x2="397.498" y2="913.686" style="stroke:#52647A;stroke-width:1;"/><polygon points="393.498,903.686,397.498,913.686,401.498,903.686,397.498,907.686" fill="#52647A" style="stroke:#52647A;stroke-width:1;stroke-linejoin:miter;stroke-miterlimit:10;"/><line x1="129.67" y1="952.163" x2="129.67" y2="1209.073" style="stroke:#52647A;stroke-width:1;"/><line x1="129.67" y1="1209.073" x2="251.584" y2="1209.073" style="stroke:#52647A;stroke-width:1;"/><polygon points="241.584,1205.073,251.584,1209.073,241.584,1213.073,245.584,1209.073" fill="#52647A" style="stroke:#52647A;stroke-width:1;stroke-linejoin:miter;stroke-miterlimit:10;"/><line x1="397.498" y1="1191.073" x2="397.498" y2="1209.073" style="stroke:#52647A;stroke-width:1;"/><line x1="397.498" y1="1209.073" x2="275.584" y2="1209.073" style="stroke:#52647A;stroke-width:1;"/><polygon points="285.584,1205.073,275.584,1209.073,285.584,1213.073,281.584,1209.073" fill="#52647A" style="stroke:#52647A;stroke-width:1;stroke-linejoin:miter;stroke-miterlimit:10;"/><line x1="263.584" y1="844.686" x2="263.584" y2="879.686" style="stroke:#52647A;stroke-width:1;"/><polygon points="259.584,869.686,263.584,879.686,267.584,869.686,263.584,873.686" fill="#52647A" style="stroke:#52647A;stroke-width:1;stroke-linejoin:miter;stroke-miterlimit:10;"/><line x1="263.584" y1="1221.073" x2="263.584" y2="1241.073" style="stroke:#52647A;stroke-width:1;"/><polygon points="259.584,1231.073,263.584,1241.073,267.584,1231.073,263.584,1235.073" fill="#52647A" style="stroke:#52647A;stroke-width:1;stroke-linejoin:miter;stroke-miterlimit:10;"/><line x1="263.584" y1="656.253" x2="263.584" y2="695.775" style="stroke:#52647A;stroke-width:1;"/><polygon points="259.584,685.775,263.584,695.775,267.584,685.775,263.584,689.775" fill="#52647A" style="stroke:#52647A;stroke-width:1;stroke-linejoin:miter;stroke-miterlimit:10;"/><line x1="324.584" y1="1330.028" x2="758.797" y2="1330.028" style="stroke:#52647A;stroke-width:1;"/><polygon points="754.797,1020.163,758.797,1010.163,762.797,1020.163,758.797,1016.163" fill="#52647A" style="stroke:#52647A;stroke-width:1;stroke-linejoin:miter;stroke-miterlimit:10;"/><line x1="758.797" y1="644.253" x2="758.797" y2="1330.028" style="stroke:#52647A;stroke-width:1;"/><line x1="758.797" y1="644.253" x2="275.584" y2="644.253" style="stroke:#52647A;stroke-width:1;"/><polygon points="285.584,640.253,275.584,644.253,285.584,648.253,281.584,644.253" fill="#52647A" style="stroke:#52647A;stroke-width:1;stroke-linejoin:miter;stroke-miterlimit:10;"/><line x1="263.584" y1="1298.028" x2="263.584" y2="1318.028" style="stroke:#52647A;stroke-width:1;"/><polygon points="259.584,1308.028,263.584,1318.028,267.584,1308.028,263.584,1312.028" fill="#52647A" style="stroke:#52647A;stroke-width:1;stroke-linejoin:miter;stroke-miterlimit:10;"/><line x1="263.584" y1="597.253" x2="263.584" y2="632.253" style="stroke:#52647A;stroke-width:1;"/><polygon points="259.584,622.253,263.584,632.253,267.584,622.253,263.584,626.253" fill="#52647A" style="stroke:#52647A;stroke-width:1;stroke-linejoin:miter;stroke-miterlimit:10;"/><line x1="263.584" y1="525.775" x2="263.584" y2="558.775" style="stroke:#52647A;stroke-width:1;"/><polygon points="259.584,548.775,263.584,558.775,267.584,548.775,263.584,552.775" fill="#52647A" style="stroke:#52647A;stroke-width:1;stroke-linejoin:miter;stroke-miterlimit:10;"/><line x1="310.584" y1="1390.342" x2="782.797" y2="1390.342" style="stroke:#52647A;stroke-width:1;"/><polygon points="778.797,983.424,782.797,973.424,786.797,983.424,782.797,979.424" fill="#52647A" style="stroke:#52647A;stroke-width:1;stroke-linejoin:miter;stroke-miterlimit:10;"/><line x1="782.797" y1="513.775" x2="782.797" y2="1390.342" style="stroke:#52647A;stroke-width:1;"/><line x1="782.797" y1="513.775" x2="275.584" y2="513.775" style="stroke:#52647A;stroke-width:1;"/><polygon points="285.584,509.775,275.584,513.775,285.584,517.775,281.584,513.775" fill="#52647A" style="stroke:#52647A;stroke-width:1;stroke-linejoin:miter;stroke-miterlimit:10;"/><line x1="263.584" y1="1342.028" x2="263.584" y2="1378.342" style="stroke:#52647A;stroke-width:1;"/><polygon points="259.584,1368.342,263.584,1378.342,267.584,1368.342,263.584,1372.342" fill="#52647A" style="stroke:#52647A;stroke-width:1;stroke-linejoin:miter;stroke-miterlimit:10;"/><line x1="263.584" y1="480.298" x2="263.584" y2="501.775" style="stroke:#52647A;stroke-width:1;"/><polygon points="259.584,491.775,263.584,501.775,267.584,491.775,263.584,495.775" fill="#52647A" style="stroke:#52647A;stroke-width:1;stroke-linejoin:miter;stroke-miterlimit:10;"/><line x1="263.584" y1="421.82" x2="263.584" y2="441.82" style="stroke:#52647A;stroke-width:1;"/><polygon points="259.584,431.82,263.584,441.82,267.584,431.82,263.584,435.82" fill="#52647A" style="stroke:#52647A;stroke-width:1;stroke-linejoin:miter;stroke-miterlimit:10;"/><line x1="324.584" y1="1450.655" x2="806.797" y2="1450.655" style="stroke:#52647A;stroke-width:1;"/><polygon points="802.797,954.402,806.797,944.402,810.797,954.402,806.797,950.402" fill="#52647A" style="stroke:#52647A;stroke-width:1;stroke-linejoin:miter;stroke-miterlimit:10;"/><line x1="806.797" y1="409.82" x2="806.797" y2="1450.655" style="stroke:#52647A;stroke-width:1;"/><line x1="806.797" y1="409.82" x2="275.584" y2="409.82" style="stroke:#52647A;stroke-width:1;"/><polygon points="285.584,405.82,275.584,409.82,285.584,413.82,281.584,409.82" fill="#52647A" style="stroke:#52647A;stroke-width:1;stroke-linejoin:miter;stroke-miterlimit:10;"/><line x1="263.584" y1="1402.342" x2="263.584" y2="1438.655" style="stroke:#52647A;stroke-width:1;"/><polygon points="259.584,1428.655,263.584,1438.655,267.584,1428.655,263.584,1432.655" fill="#52647A" style="stroke:#52647A;stroke-width:1;stroke-linejoin:miter;stroke-miterlimit:10;"/><line x1="263.584" y1="377.82" x2="263.584" y2="397.82" style="stroke:#52647A;stroke-width:1;"/><polygon points="259.584,387.82,263.584,397.82,267.584,387.82,263.584,391.82" fill="#52647A" style="stroke:#52647A;stroke-width:1;stroke-linejoin:miter;stroke-miterlimit:10;"/><line x1="1269.569" y1="649.73" x2="1269.569" y2="676.253" style="stroke:#52647A;stroke-width:1;"/><polygon points="1265.569,666.253,1269.569,676.253,1273.569,666.253,1269.569,670.253" fill="#52647A" style="stroke:#52647A;stroke-width:1;stroke-linejoin:miter;stroke-miterlimit:10;"/><line x1="1269.569" y1="733.208" x2="1269.569" y2="768.208" style="stroke:#52647A;stroke-width:1;"/><polygon points="1265.569,758.208,1269.569,768.208,1273.569,758.208,1269.569,762.208" fill="#52647A" style="stroke:#52647A;stroke-width:1;stroke-linejoin:miter;stroke-miterlimit:10;"/><line x1="1269.569" y1="825.163" x2="1269.569" y2="860.163" style="stroke:#52647A;stroke-width:1;"/><polygon points="1265.569,850.163,1269.569,860.163,1273.569,850.163,1269.569,854.163" fill="#52647A" style="stroke:#52647A;stroke-width:1;stroke-linejoin:miter;stroke-miterlimit:10;"/><line x1="1087.727" y1="570.775" x2="988.941" y2="570.775" style="stroke:#52647A;stroke-width:1;"/><line x1="988.941" y1="570.775" x2="988.941" y2="592.775" style="stroke:#52647A;stroke-width:1;"/><polygon points="984.941,582.775,988.941,592.775,992.941,582.775,988.941,586.775" fill="#52647A" style="stroke:#52647A;stroke-width:1;stroke-linejoin:miter;stroke-miterlimit:10;"/><line x1="1170.783" y1="570.775" x2="1269.569" y2="570.775" style="stroke:#52647A;stroke-width:1;"/><line x1="1269.569" y1="570.775" x2="1269.569" y2="592.775" style="stroke:#52647A;stroke-width:1;"/><polygon points="1265.569,582.775,1269.569,592.775,1273.569,582.775,1269.569,586.775" fill="#52647A" style="stroke:#52647A;stroke-width:1;stroke-linejoin:miter;stroke-miterlimit:10;"/><line x1="988.941" y1="631.253" x2="988.941" y2="935.118" style="stroke:#52647A;stroke-width:1;"/><line x1="988.941" y1="935.118" x2="1117.255" y2="935.118" style="stroke:#52647A;stroke-width:1;"/><polygon points="1107.255,931.118,1117.255,935.118,1107.255,939.118,1111.255,935.118" fill="#52647A" style="stroke:#52647A;stroke-width:1;stroke-linejoin:miter;stroke-miterlimit:10;"/><line x1="1269.569" y1="917.118" x2="1269.569" y2="935.118" style="stroke:#52647A;stroke-width:1;"/><line x1="1269.569" y1="935.118" x2="1141.255" y2="935.118" style="stroke:#52647A;stroke-width:1;"/><polygon points="1151.255,931.118,1141.255,935.118,1151.255,939.118,1147.255,935.118" fill="#52647A" style="stroke:#52647A;stroke-width:1;stroke-linejoin:miter;stroke-miterlimit:10;"/><line x1="1129.255" y1="538.775" x2="1129.255" y2="558.775" style="stroke:#52647A;stroke-width:1;"/><polygon points="1125.255,548.775,1129.255,558.775,1133.255,548.775,1129.255,552.775" fill="#52647A" style="stroke:#52647A;stroke-width:1;stroke-linejoin:miter;stroke-miterlimit:10;"/><line x1="1129.255" y1="947.118" x2="1129.255" y2="974.402" style="stroke:#52647A;stroke-width:1;"/><polygon points="1125.255,964.402,1129.255,974.402,1133.255,964.402,1129.255,968.402" fill="#52647A" style="stroke:#52647A;stroke-width:1;stroke-linejoin:miter;stroke-miterlimit:10;"/><line x1="1129.255" y1="465.82" x2="1129.255" y2="500.298" style="stroke:#52647A;stroke-width:1;"/><polygon points="1125.255,490.298,1129.255,500.298,1133.255,490.298,1129.255,494.298" fill="#52647A" style="stroke:#52647A;stroke-width:1;stroke-linejoin:miter;stroke-miterlimit:10;"/><line x1="1176.255" y1="1072.118" x2="1423.288" y2="1072.118" style="stroke:#52647A;stroke-width:1;"/><polygon points="1419.288,767.947,1423.288,757.947,1427.288,767.947,1423.288,763.947" fill="#52647A" style="stroke:#52647A;stroke-width:1;stroke-linejoin:miter;stroke-miterlimit:10;"/><line x1="1423.288" y1="453.82" x2="1423.288" y2="1072.118" style="stroke:#52647A;stroke-width:1;"/><line x1="1423.288" y1="453.82" x2="1141.255" y2="453.82" style="stroke:#52647A;stroke-width:1;"/><polygon points="1151.255,449.82,1141.255,453.82,1151.255,457.82,1147.255,453.82" fill="#52647A" style="stroke:#52647A;stroke-width:1;stroke-linejoin:miter;stroke-miterlimit:10;"/><line x1="1129.255" y1="1031.357" x2="1129.255" y2="1060.118" style="stroke:#52647A;stroke-width:1;"/><polygon points="1125.255,1050.118,1129.255,1060.118,1133.255,1050.118,1129.255,1054.118" fill="#52647A" style="stroke:#52647A;stroke-width:1;stroke-linejoin:miter;stroke-miterlimit:10;"/><line x1="1129.255" y1="421.82" x2="1129.255" y2="441.82" style="stroke:#52647A;stroke-width:1;"/><polygon points="1125.255,431.82,1129.255,441.82,1133.255,431.82,1129.255,435.82" fill="#52647A" style="stroke:#52647A;stroke-width:1;stroke-linejoin:miter;stroke-miterlimit:10;"/><line x1="1190.255" y1="1144.118" x2="1441.288" y2="1144.118" style="stroke:#52647A;stroke-width:1;"/><polygon points="1437.288,767.947,1441.288,757.947,1445.288,767.947,1441.288,763.947" fill="#52647A" style="stroke:#52647A;stroke-width:1;stroke-linejoin:miter;stroke-miterlimit:10;"/><line x1="1441.288" y1="409.82" x2="1441.288" y2="1144.118" style="stroke:#52647A;stroke-width:1;"/><line x1="1441.288" y1="409.82" x2="1141.255" y2="409.82" style="stroke:#52647A;stroke-width:1;"/><polygon points="1151.255,405.82,1141.255,409.82,1151.255,413.82,1147.255,409.82" fill="#52647A" style="stroke:#52647A;stroke-width:1;stroke-linejoin:miter;stroke-miterlimit:10;"/><line x1="1129.255" y1="1084.118" x2="1129.255" y2="1132.118" style="stroke:#52647A;stroke-width:1;"/><polygon points="1125.255,1122.118,1129.255,1132.118,1133.255,1122.118,1129.255,1126.118" fill="#52647A" style="stroke:#52647A;stroke-width:1;stroke-linejoin:miter;stroke-miterlimit:10;"/><line x1="1129.255" y1="377.82" x2="1129.255" y2="397.82" style="stroke:#52647A;stroke-width:1;"/><polygon points="1125.255,387.82,1129.255,397.82,1133.255,387.82,1129.255,391.82" fill="#52647A" style="stroke:#52647A;stroke-width:1;stroke-linejoin:miter;stroke-miterlimit:10;"/><line x1="656.802" y1="260.388" x2="263.584" y2="260.388" style="stroke:#52647A;stroke-width:1;"/><line x1="263.584" y1="260.388" x2="263.584" y2="320.865" style="stroke:#52647A;stroke-width:1;"/><polygon points="259.584,310.865,263.584,320.865,267.584,310.865,263.584,314.865" fill="#52647A" style="stroke:#52647A;stroke-width:1;stroke-linejoin:miter;stroke-miterlimit:10;"/><line x1="736.802" y1="260.388" x2="1129.255" y2="260.388" style="stroke:#52647A;stroke-width:1;"/><line x1="1129.255" y1="260.388" x2="1129.255" y2="320.865" style="stroke:#52647A;stroke-width:1;"/><polygon points="1125.255,310.865,1129.255,320.865,1133.255,310.865,1129.255,314.865" fill="#52647A" style="stroke:#52647A;stroke-width:1;stroke-linejoin:miter;stroke-miterlimit:10;"/><line x1="263.584" y1="1462.655" x2="263.584" y2="1500.655" style="stroke:#52647A;stroke-width:1;"/><line x1="263.584" y1="1500.655" x2="684.802" y2="1500.655" style="stroke:#52647A;stroke-width:1;"/><polygon points="674.802,1496.655,684.802,1500.655,674.802,1504.655,678.802,1500.655" fill="#52647A" style="stroke:#52647A;stroke-width:1;stroke-linejoin:miter;stroke-miterlimit:10;"/><line x1="1129.255" y1="1156.118" x2="1129.255" y2="1500.655" style="stroke:#52647A;stroke-width:1;"/><line x1="1129.255" y1="1500.655" x2="708.802" y2="1500.655" style="stroke:#52647A;stroke-width:1;"/><polygon points="718.802,1496.655,708.802,1500.655,718.802,1504.655,714.802,1500.655" fill="#52647A" style="stroke:#52647A;stroke-width:1;stroke-linejoin:miter;stroke-miterlimit:10;"/><line x1="696.802" y1="228.388" x2="696.802" y2="248.388" style="stroke:#52647A;stroke-width:1;"/><polygon points="692.802,238.388,696.802,248.388,700.802,238.388,696.802,242.388" fill="#52647A" style="stroke:#52647A;stroke-width:1;stroke-linejoin:miter;stroke-miterlimit:10;"/><line x1="696.802" y1="1512.655" x2="696.802" y2="1532.655" style="stroke:#52647A;stroke-width:1;"/><polygon points="692.802,1522.655,696.802,1532.655,700.802,1522.655,696.802,1526.655" fill="#52647A" style="stroke:#52647A;stroke-width:1;stroke-linejoin:miter;stroke-miterlimit:10;"/><line x1="696.802" y1="1589.61" x2="696.802" y2="1609.61" style="stroke:#52647A;stroke-width:1;"/><polygon points="692.802,1599.61,696.802,1609.61,700.802,1599.61,696.802,1603.61" fill="#52647A" style="stroke:#52647A;stroke-width:1;stroke-linejoin:miter;stroke-miterlimit:10;"/><line x1="696.802" y1="1666.565" x2="696.802" y2="1686.565" style="stroke:#52647A;stroke-width:1;"/><polygon points="692.802,1676.565,696.802,1686.565,700.802,1676.565,696.802,1680.565" fill="#52647A" style="stroke:#52647A;stroke-width:1;stroke-linejoin:miter;stroke-miterlimit:10;"/><g class="legend" data-source-line="70"><rect x="501.644" y="1729.565" width="472" height="65.433" fill="none" style="stroke:#000;stroke-width:1;" rx="7.5" ry="7.5"/><text x="506.644" y="1749.379" fill="#000" font-size="14" textLength="462" font-family="Microsoft YaHei">此图描述已接入的代码流程，不表示已完成公开任务实测或获得性能收益。</text><text x="506.644" y="1767.856" fill="#000" font-size="14" textLength="378" font-family="Microsoft YaHei">任一步骤失败会保留日志并终止；不跳过失败题以提高成绩。</text><text x="506.644" y="1786.334" fill="#000" font-size="14" textLength="433.665" font-family="Microsoft YaHei">AgentRadio 仍走 Coral；Jiuwen DB 消息链路由另行集成测试覆盖。</text></g><?plantuml-src nLVVJnj747xtNx5gNn9LfILjqme_GLAKjcaQDQgYIf7GOIzmvNndtQr3Q5N9f1ZRO6Cd0KCm9K1CS4AmeGs_V1Z_B-tjtjrJ_eNEtXvWkwRjMtd1vvkPdPtvlc_6H2OAHhIoo0f7g0-heP68f8--FLvYwKrdBMCTpZhLIPgQOdiJTdacO8pAQbJIfGWAuo4fff1-JIMtf0X6NyiXNJEq8OA-bsvWkRFb7Vb7ZBe_RdffZ4XXRKnMXz6Gf1YuwKslhcjZrpH5qz6xdrov-l6dlKqlfH2Hxyjal4yAZGxhMamD-vQVT_T_sD_VoLBJmrZthQxsVjRNszV1wheiHJGr_BUm_VtzLwzVQt9GDOB_tMgmWmNy1G86aNGIw0d7eWf-C80VHB4kHx1AxgbqUjMfrscfuFvITXDPkrvvUvoXgI8rQpHHPeKTstp2LfRjOeNMvuE17hQwvhw2FaspmqDQhD7A4WffaOXC4FGE4Hqom6742adBtB-dkl4qctafsarddxdhYn3TQlngpp-5HnIBXYM23VG1qcE3kXmA1kGXT0aGmFPctEBKs-Ddbn4PmIgwz8LAiAx7eiJ333XyTwNtSW0Xk3UHYQofw1qUy2uUxDMnAa4yLSKwuEhsE1c1jnzrTNU_Wtu23uHwn6rPBc-T5Etw8tlhASy06vWWjfobqsjGbkCQJUspQWvIzb-TLSUUUyPIUJYERiwmoHmjdeXNGI-wZgDO8jv7ECffv07MFju79GChief53UZsebClEusZe6_SuWc-hhdeL4hsTi6Utq3Qq90SaYK5CZK8nZhybmOrdGn0Shovy1pHmbW9dlctXOE0ecie8etYWGXGH1wGJyiw0466yJtLdji5A-imxYxkiygUID2_SFq9JMV5XQ7NhFW6qE6S7DdpcM3JAHofI9U7HvgFHkWEZu-w4KtiMhKjjlpQgLVE2l9d_66BCStFskQsIC6gD-ovCirFYa8uoLVqODTUcXIfjNfYDUoTttnf3Wk11h-FVqmzvhLHf75eSmfkSEAtvwltEIq1B1TTZOFph0yYdIQ8iiNgvPPRzB3VlDGXWP2aA0EA4k4aWMTn05lOfxLSym4O90bTeaVxDFU8fL_ItVcsY3pMRLsBH4dlCD0NiPL9Dxugma5p00HGEXJrB8nWgo_uXR1XtDNqKOyP1WdB6lhopZUteEqph-sj6NHEbYj823Aw9O5IuTk0kBPmD5-bqsMsiEaVXw0dBB7EocjqPSQf7h3TXvn63zds1fkUT-EFprG0QECplpNa1SX1VZyiCqkN0GWWFl7pNeakjGC8GNlIz2J1bf-v2s-imwou3PUp-YDtRGyoj-hB7Rn47SQy6datMjYWZGLdRmTO1tgkjxjqG1olJMqE6k_NxWmf6QSnHuihe8q0Vv51i1Myyb0RSeMLi_cShUGzu6BrVXVmF-ezD8i8r1gmWUzBIamYcZu0Km2eZSGqRHS5D3OYmnY-v3GMsN9Qb5UmpSEpR0Wqyvi17FClBWSkzcxYmGL-dRpSP9QMihIo0iFaOj-V0u8H7jY_bJXUFq2z7PN_XgI37ABtq4rPZJr0bcc2ZjFA4NrQFjVzv1Gj9T5rBSIxor85Ul0RAAnJdK1VQs59yMhOxCb7sZLD1xQxyIMhiIQcGmUT_qVflda5ihxvqNzNRgupljF5-dAgvgVvFOGX95BcvOZoWmJeuSlpqAAUBS1i2Vgb71l3QbEzRNEJfHiSYfMqypm1uUtZ0fjzV4-rp0GhDbXsNHmcz80cDcZkUR0TniKYycB-6P-mQdC2QZ1_xLADJvA9TS22U8GM25t9J5X7YGlKfwTFCaRGc4H28zx1ipItGoiPc5621Q8aR3_59ghEoHEQh7bqEG_MfUCGXiyjGLd6nxBJgCDMnBKqLu0W7AfcZJzMqdmbyh85oJGtOKO9jDZ5Dp19xEqvjfQoQfjm80TNQTTviz5K-XP-zuWjIFZGnnbOdVXK0Myx_L9SupuiQKFZ0ue6qwChEeuWGNzFQgFr_q1Bxowd-sG4G_8X0x7T98kRaBf8Zo_ptlfZrMQyRP0jR_cjpwH5uJXcgqSWZKGoHj6WfX43LiWeWcqAw4OpDL1lM3hfr5EUBf2cwmT3Km55-04EnJZxlIyG5D2Dv_ceyVGQkWFxMscN_v2Ot-7B9WmE-5pDylNDUmLW0HLccIHRJLg7DQJ6562WGRHe8A3WOQxhWneXMYJ0jakmyR1SpcdiW62msGq0EOm6otnkhqw87ofyeplCEcjbW33O233In6jw73_LanNOQG4Lpkm1FLbWyKtdbpgRsxUBqtoaW15CDSZVVLKIkB6EbmH2n8rW9x3D5DjUVtjSv2ST_Euqai8IDbJBt03wk5kBSAfjlkGHcoWCWvCFC8yLu2ueZgxt-Gnndvmu1rLO_6Zk1JGBzcvUcpsOuVFEYocxME3Xe1wYAdy1?></g></svg>