<svg xmlns="http://www.w3.org/2000/svg" xmlns:xlink="http://www.w3.org/1999/xlink" version="1.1" data-diagram-type="ACTIVITY" style="width:544px;height:753px;background:#FFFFFF;" width="544px" height="753px" viewBox="0 0 544 753" zoomAndPan="magnify" preserveAspectRatio="none" contentStyleType="text/css"><?plantuml 1.2026.8?><defs/><g font-family="sans-serif" lengthAdjust="spacing"><g class="title" data-source-line="1"><text x="173.809" y="34.813" fill="#000" font-size="14" textLength="194.51" font-weight="700" font-family="Microsoft YaHei">② 接住消息：展开总览第 ② 步</text></g><ellipse cx="268.747" cy="64.478" rx="10" ry="10" fill="#222" style="stroke:#222;stroke-width:1;"/><rect x="149.114" y="94.478" width="239.266" height="62.234" fill="#E1F0FF" style="stroke:#181818;stroke-width:0.5;" rx="12.5" ry="12.5"/><text x="159.114" y="121.407" fill="#000" font-size="16" textLength="155.016" font-family="Microsoft YaHei">②.1 原 SDK 接收消息</text><text x="159.114" y="142.524" fill="#000" font-size="16" textLength="219.266" font-family="Microsoft YaHei">DB 事件 / 轮询，或原用户入口</text><rect x="138.747" y="176.712" width="260" height="62.234" fill="#E1F0FF" style="stroke:#181818;stroke-width:0.5;" rx="12.5" ry="12.5"/><text x="148.747" y="203.642" fill="#000" font-size="16" textLength="177.969" font-family="Microsoft YaHei">②.2 原处理器按顺序投递</text><text x="148.747" y="224.759" fill="#000" font-size="16" textLength="240" font-family="Microsoft YaHei">控制、审批、模板消息仍走原逻辑</text><rect x="173.267" y="313.31" width="190.961" height="62.234" fill="#E1F0FF" style="stroke:#181818;stroke-width:0.5;" rx="12.5" ry="12.5"/><text x="183.267" y="340.239" fill="#000" font-size="16" textLength="80" font-family="Microsoft YaHei">不重复投递</text><text x="183.267" y="361.356" fill="#000" font-size="16" textLength="170.961" font-family="Microsoft YaHei">DB 输入重试原已读确认</text><ellipse cx="268.747" cy="406.544" rx="11" ry="11" fill="none" style="stroke:#222;stroke-width:1;"/><ellipse cx="268.747" cy="406.544" rx="6" ry="6" fill="#222" style="stroke:#222;stroke-width:1;"/><polygon points="161.935,260.751,375.56,260.751,387.56,272.751,375.56,284.751,161.935,284.751,149.935,272.751,161.935,260.751" fill="#FFF1CC" style="stroke:#181818;stroke-width:0.5;stroke-linejoin:miter;stroke-miterlimit:10;"/><text x="272.747" y="301.681" fill="#000" font-size="16" font-family="Microsoft YaHei">是</text><text x="161.935" y="279.122" fill="#000" font-size="16" textLength="213.625" font-family="Microsoft YaHei">当前实例已经应用过这个 ID？</text><text x="387.56" y="268.563" fill="#000" font-size="16" font-family="Microsoft YaHei">否</text><rect x="125.567" y="459.544" width="286.359" height="62.234" fill="#E1F0FF" style="stroke:#181818;stroke-width:0.5;" rx="12.5" ry="12.5"/><text x="135.567" y="486.474" fill="#000" font-size="16" textLength="113.969" font-family="Microsoft YaHei">②.3 交给判断层</text><text x="135.567" y="507.591" fill="#000" font-size="16" textLength="266.359" font-family="Microsoft YaHei">相同 ID 复用处理结果，内容冲突报错</text><rect x="181.028" y="541.778" width="175.438" height="41.117" fill="#E1F0FF" style="stroke:#181818;stroke-width:0.5;" rx="12.5" ry="12.5"/><text x="191.028" y="568.708" fill="#000" font-size="16" textLength="155.438" font-family="Microsoft YaHei">②.4 进入第 ③ 步判断</text><ellipse cx="268.747" cy="613.896" rx="11" ry="11" fill="none" style="stroke:#222;stroke-width:1;"/><ellipse cx="268.747" cy="613.896" rx="6" ry="6" fill="#222" style="stroke:#222;stroke-width:1;"/><line x1="268.747" y1="74.478" x2="268.747" y2="94.478" style="stroke:#181818;stroke-width:1;"/><polygon points="264.747,84.478,268.747,94.478,272.747,84.478,268.747,88.478" fill="#181818" style="stroke:#181818;stroke-width:1;stroke-linejoin:miter;stroke-miterlimit:10;"/><line x1="268.747" y1="156.712" x2="268.747" y2="176.712" style="stroke:#181818;stroke-width:1;"/><polygon points="264.747,166.712,268.747,176.712,272.747,166.712,268.747,170.712" fill="#181818" style="stroke:#181818;stroke-width:1;stroke-linejoin:miter;stroke-miterlimit:10;"/><line x1="268.747" y1="375.544" x2="268.747" y2="395.544" style="stroke:#181818;stroke-width:1;"/><polygon points="264.747,385.544,268.747,395.544,272.747,385.544,268.747,389.544" fill="#181818" style="stroke:#181818;stroke-width:1;stroke-linejoin:miter;stroke-miterlimit:10;"/><line x1="268.747" y1="284.751" x2="268.747" y2="313.31" style="stroke:#181818;stroke-width:1;"/><polygon points="264.747,303.31,268.747,313.31,272.747,303.31,268.747,307.31" fill="#181818" style="stroke:#181818;stroke-width:1;stroke-linejoin:miter;stroke-miterlimit:10;"/><line x1="387.56" y1="272.751" x2="399.56" y2="272.751" style="stroke:#181818;stroke-width:1;"/><polygon points="395.56,359.927,399.56,369.927,403.56,359.927,399.56,363.927" fill="#181818" style="stroke:#181818;stroke-width:1;stroke-linejoin:miter;stroke-miterlimit:10;"/><line x1="399.56" y1="272.751" x2="399.56" y2="439.544" style="stroke:#181818;stroke-width:1;"/><line x1="399.56" y1="439.544" x2="268.747" y2="439.544" style="stroke:#181818;stroke-width:1;"/><line x1="268.747" y1="439.544" x2="268.747" y2="459.544" style="stroke:#181818;stroke-width:1;"/><polygon points="264.747,449.544,268.747,459.544,272.747,449.544,268.747,453.544" fill="#181818" style="stroke:#181818;stroke-width:1;stroke-linejoin:miter;stroke-miterlimit:10;"/><line x1="268.747" y1="238.946" x2="268.747" y2="260.751" style="stroke:#181818;stroke-width:1;"/><polygon points="264.747,250.751,268.747,260.751,272.747,250.751,268.747,254.751" fill="#181818" style="stroke:#181818;stroke-width:1;stroke-linejoin:miter;stroke-miterlimit:10;"/><line x1="268.747" y1="521.778" x2="268.747" y2="541.778" style="stroke:#181818;stroke-width:1;"/><polygon points="264.747,531.778,268.747,541.778,272.747,531.778,268.747,535.778" fill="#181818" style="stroke:#181818;stroke-width:1;stroke-linejoin:miter;stroke-miterlimit:10;"/><line x1="268.747" y1="582.896" x2="268.747" y2="602.896" style="stroke:#181818;stroke-width:1;"/><polygon points="264.747,592.896,268.747,602.896,272.747,592.896,268.747,596.896" fill="#181818" style="stroke:#181818;stroke-width:1;stroke-linejoin:miter;stroke-miterlimit:10;"/><g class="legend" data-source-line="23"><rect x="22" y="645.896" width="498.127" height="83.91" fill="#DDD" style="stroke:#000;stroke-width:1;" rx="7.5" ry="7.5"/><text x="27" y="665.709" fill="#000" font-size="14" textLength="307.733" font-family="Microsoft YaHei">不新增 DB 轮询、事件派发任务或接收容量限制。</text><text x="27" y="684.187" fill="#000" font-size="14" textLength="395.507" font-family="Microsoft YaHei">DB 按原 SDK 顺序送入；不等待分类完成，新消息可合批重判。</text><text x="27" y="702.664" fill="#000" font-size="14" textLength="350" font-family="Microsoft YaHei">已读表示完整输入已可靠保存，不表示分类或执行完成。</text><text x="27" y="721.142" fill="#000" font-size="14" textLength="488.127" font-family="Microsoft YaHei">对应代码：原 MessageHandler / duplex_shadow.py / duplex_controller.py</text></g><?plantuml-src RLDDJnfH5DtFhtX9DxgnfH-caPtIYKrZDwwwQgRmm8d33676jdO5fk2W85Y1IAqVer294L1ZKHc4_zBEUpEpuY_q3e-c9hfxkU_SS-uzvprDr2ICVcyQY6xKhDiyRUiqsHfqlvFp4kacQC9qZdNxz9H16ZLENHJbc10NeYY4myAIfF6AhBqLeXZDYS6ueYfX3RqJPh7uC79U_8AHR_BEfReWX9HFeXn1OK5IyPqR8QY97qLjULe8BaRYof8Scb4a9OuUlVBnJtZ-0MH05AAA7BhNmFEyRsRcJeEiQFW-wWK_oR_aL4s8QzmKB3pXGsHZ7yq7tdZkq6ARkSC5ff7LMRVCDdgCdDkcqpeSTBDKBmFOBjQfVaLIDP8_yZEIfnu9gNwr2sbIgTDinZKwf9EdQoKtyOsZ6yT4R_z994dJe9aRED2wGNVxJCeoSywlC-Xt8OZUffyJmsYCt6wHJ8uqzwpUEhcwiCqywHH1sEclElsATNs2NWS6tVrnf2rW6OtHxTOuXz2KTPrpLtEacXifmnPERmj6XQhJAdb3NbquBTCscawpweSMLLDY78PGGBFmSvp3SaWCiwMUWGDLswmGlKhB3NA-mjaxrwIG1Ma44Z0DszWsj-ZU3x27f5EaUKFI5_P9agxLt69bPCzpvFHtO0hso0wzHyP8_TnGNy8Hq4KV54rJeZ0Kh47BP-Hm3taB3Dq7qrWUzB97yfkMQP8r0_9WeO6ikvftAuMXpoj00OqGmxzeMHmk992g3Rexm6ytCgIN8dhQFZT94v8jUFcMprWc9DyY1HsoyjpKguoIMUSOTRlQyLfAbynRg0FUtJsm-hkaiGqym3-23VczCJF7Zf5bGYEsrWr4Qfb7za7I-uimwHnMLI62PmKv9E4uFBpGKap2dz-pxpCHM_vV2i8_YoiImA3iXSOi_0i0?></g></svg>